<svg width="16" height="16" viewBox="0 0 16 16" fill="none" xmlns="http://www.w3.org/2000/svg"><path d="M7.53079 11.2075L7.53077 11.2075L7.52677 11.2117L5.5 13.3492V11.7867C5.5 11.3681 5.26005 11.0383 4.99016 10.8331C4.71758 10.6258 4.36174 10.5 4 10.5L2.7636 10.5C2.76348 10.5 2.76336 10.5 2.76323 10.5C2.63196 10.4996 2.5 10.3838 2.5 10.214V2.78596C2.5 2.6152 2.63281 2.5 2.76271 2.5H13.2381C13.3659 2.5 13.4994 2.61455 13.4994 2.78596V10.214C13.4994 10.3851 13.3662 10.5 13.2374 10.5H9C8.38745 10.5 7.87026 10.8577 7.53079 11.2075Z" stroke="currentColor"></path></svg>
