<svg width="16" height="16" viewBox="0 0 16 16" fill="none" xmlns="http://www.w3.org/2000/svg"><path d="M13.6071 9.92823C13.8831 9.58495 14.0155 9.21694 13.9986 8.83795C13.9817 8.42052 13.7902 8.09371 13.6325 7.89323C13.8155 7.44833 13.8859 6.74802 13.2748 6.20426C12.827 5.80604 12.0667 5.62753 11.0134 5.67697C10.2728 5.70992 9.65324 5.84449 9.6279 5.84998H9.62508C9.48427 5.8747 9.33502 5.90491 9.18295 5.93786C9.17168 5.7621 9.20266 5.32544 9.53496 4.34227C9.92923 3.17235 9.87837 1.77709 9.43342 1.1784C8.96594 0.549494 8.21966 0.500061 8 0.500061C7.78879 0.500061 7.59447 0.585196 7.45648 0.741735C7.14389 1.09601 7.1805 1.74963 7.21993 2.05172C6.84819 3.02391 5.81818 5.54599 4.95308 6.56951C4.45455 7.06131 4.33662 7.27806 3.79846 7.27806H3.17152C2.5238 7.27806 2 7.79161 2 8.42052V12.8832C2 13.5149 2.44601 13.6277 3.09091 13.6277H3.79846C4.25326 13.6277 4.54773 13.7072 5.01164 13.7611C5.11302 13.7748 6.91536 13.9973 8.76557 13.9616C9.10069 13.9863 9.4161 14 9.70898 14C10.2131 14 10.6524 13.9616 11.0185 13.8847C11.8802 13.7062 12.5933 13.4819 12.8918 12.9574C13.1199 12.5564 13.1199 12.1582 13.0833 11.9056C13.6437 11.4112 13.7423 10.8647 13.7226 10.4802C13.7113 10.2578 13.6606 10.0683 13.6071 9.92823Z" stroke="currentColor" stroke-linecap="round" stroke-linejoin="round"></path></svg>
