<svg width="24px" height="24px" fill="none" xmlns="http://www.w3.org/2000/svg"><path fill-rule="evenodd" clip-rule="evenodd" d="M17.656 10.667c0 3.889-3.142 7.042-7.018 7.042S3.62 14.556 3.62 10.667c0-3.89 3.142-7.042 7.018-7.042s7.018 3.153 7.018 7.042Zm-1.473 6.645a8.586 8.586 0 0 1-5.545 2.021c-4.77 0-8.638-3.88-8.638-8.666C2 5.88 5.867 2 10.638 2c4.77 0 8.638 3.88 8.638 8.667a8.649 8.649 0 0 1-1.954 5.49l4.44 4.456a.814.814 0 0 1 0 1.149.808.808 0 0 1-1.144 0l-4.435-4.45Z" fill="currentColor"></path></svg>
