<svg width="24px" height="24px" viewBox="0 0 24 24" fill="none" xmlns="http://www.w3.org/2000/svg"><path fill-rule="evenodd" clip-rule="evenodd" d="M10.75 3C10.75 2.30964 11.3096 1.75 12 1.75C12.6904 1.75 13.25 2.30964 13.25 3C13.25 3.69036 12.6904 4.25 12 4.25C11.3096 4.25 10.75 3.69036 10.75 3ZM12 0.25C10.4812 0.25 9.25 1.48122 9.25 3C9.25 3.28744 9.2941 3.56458 9.3759 3.82503C8.62348 4.13245 7.82918 4.59259 7.15112 5.26843C6.16619 6.25016 5.46424 7.65181 5.46424 9.57466C5.46424 12.5253 4.70381 13.9577 4.03188 14.7608C3.72969 15.122 3.43406 15.3723 3.15257 15.6107L3.15256 15.6107L3.1524 15.6109L3.15205 15.6112C3.10565 15.6505 3.05963 15.6895 3.01404 15.7285C2.86517 15.8562 2.68613 16.0142 2.54669 16.1929C2.39834 16.3831 2.24995 16.6529 2.24995 17L2.24992 17.0703C2.24951 17.5816 2.24904 18.1719 2.43543 18.6863C2.66115 19.3094 3.12027 19.7515 3.8385 20.0483C4.51319 20.3272 5.45334 20.495 6.73594 20.5995C7.18985 20.6364 7.69465 20.666 8.25587 20.6888C8.37031 22.5041 10.127 23.75 12 23.75C13.8729 23.75 15.6296 22.5041 15.744 20.6888C16.3053 20.666 16.8101 20.6364 17.264 20.5995C18.5466 20.495 19.4867 20.3272 20.1614 20.0483C20.8796 19.7515 21.3388 19.3094 21.5645 18.6863C21.7509 18.1719 21.7504 17.5816 21.75 17.0703V17.0703L21.75 17C21.75 16.6529 21.6016 16.3831 21.4532 16.1929C21.3138 16.0142 21.1347 15.8562 20.9859 15.7285C20.9401 15.6893 20.8939 15.6502 20.8474 15.6108L20.8473 15.6107C20.5658 15.3723 20.2702 15.122 19.968 14.7608C19.2961 13.9577 18.5357 12.5253 18.5357 9.57466C18.5357 7.72718 17.8876 6.35866 16.9592 5.38152C16.2573 4.64271 15.4162 4.14874 14.6241 3.82506C14.7059 3.5646 14.75 3.28745 14.75 3C14.75 1.48122 13.5188 0.25 12 0.25ZM13.7704 5.10442C13.292 5.50727 12.6744 5.75 12 5.75C11.3256 5.75 10.708 5.50726 10.2296 5.10439C9.53341 5.35129 8.80054 5.74225 8.21005 6.33082C7.50313 7.03544 6.96424 8.05659 6.96424 9.57466C6.96424 12.8141 6.11753 14.6056 5.18231 15.7234C4.79096 16.1911 4.3929 16.5271 4.11126 16.7648L4.11125 16.7648L4.11107 16.7649L4.11001 16.7658C4.06728 16.8019 4.02725 16.8357 3.99034 16.8673C3.86249 16.9769 3.79116 17.0445 3.75003 17.0909C3.75111 17.6459 3.76383 17.9493 3.84573 18.1754C3.90125 18.3286 4.00463 18.494 4.41141 18.6621C4.86172 18.8482 5.60907 19.0027 6.85771 19.1044C8.09244 19.205 9.75567 19.25 12 19.25C14.2442 19.25 15.9075 19.205 17.1422 19.1044C18.3908 19.0027 19.1382 18.8482 19.5885 18.6621C19.9953 18.494 20.0986 18.3286 20.1542 18.1754C20.2361 17.9493 20.2488 17.6459 20.2499 17.0909C20.2087 17.0445 20.1374 16.9769 20.0096 16.8673C19.9723 16.8354 19.9318 16.8012 19.8887 16.7648C19.607 16.5271 19.209 16.1911 18.8176 15.7234C17.8824 14.6056 17.0357 12.8141 17.0357 9.57466C17.0357 8.11297 16.5361 7.11396 15.8717 6.41469C15.269 5.78033 14.5015 5.36369 13.7704 5.10442ZM12 20.75C12.8111 20.75 13.552 20.7442 14.2284 20.7318C14.0864 21.502 13.2509 22.25 12 22.25C10.749 22.25 9.9135 21.502 9.77148 20.7318C10.448 20.7442 11.1888 20.75 12 20.75Z" fill="currentColor"></path></svg>
